# Blender v2.79 (sub 0) OBJ File: ''
# www.blender.org
o Car1_Cube
v -1.238311 -1.000000 -0.168607
v -1.000000 5.158144 -0.168607
v -0.696946 -1.000000 1.000000
v -1.000000 5.158144 1.000000
v -0.361099 -8.135254 -0.795464
v -0.361099 -7.486254 -0.073270
v -0.524797 3.694959 1.871134
v -0.524797 0.463185 1.871134
v -4.191860 2.348182 -0.655699
v -4.191860 3.928862 -0.655699
v -0.553452 6.353924 0.084186
v -0.553453 6.353924 0.747208
v -1.000000 1.177797 -0.168607
v -1.000000 3.230512 -0.168607
v -1.000000 1.177797 1.000000
v -1.000000 3.230511 1.000000
v -0.524797 1.606085 2.114604
v -0.524797 2.683343 2.114604
v -0.621455 -6.926289 -0.704601
v -0.409780 -6.546074 0.082300
v -1.124866 -2.089898 -0.267181
v -0.644133 -2.019973 0.786000
v -1.812174 3.408208 0.578705
v -1.812174 1.475603 0.578705
v -1.502017 -0.701058 -0.212097
v -1.228278 5.070227 0.441023
v 1.238311 -1.000000 -0.168607
v 1.000000 5.158144 -0.168607
v 0.696946 -1.000000 1.000000
v 1.000000 5.158144 1.000000
v 0.361099 -8.135254 -0.795464
v 0.361099 -7.486254 -0.073270
v 0.524797 3.694959 1.871134
v 0.524797 0.463185 1.871134
v 0.000000 5.158144 -0.168607
v 0.000000 -1.000000 -0.168607
v 0.000000 5.158144 1.000000
v 0.000000 -1.000000 1.000000
v 0.000000 -8.135254 -0.795464
v 0.000000 -7.486254 -0.073270
v 0.000000 3.694959 1.871134
v 0.000000 0.463184 1.871134
v 4.191860 2.348182 -0.655699
v 4.191860 3.928862 -0.655699
v 0.000000 -2.122029 -0.267181
v 0.000000 -7.101002 -0.704601
v 0.000000 6.353924 0.084186
v 0.553452 6.353924 0.084186
v 0.553453 6.353924 0.747208
v 0.000000 6.353924 0.747208
v 1.000000 1.177797 -0.168607
v 1.000000 3.230512 -0.168607
v 1.000000 1.177797 1.000000
v 1.000000 3.230511 1.000000
v 0.524797 1.606085 2.114604
v 0.524797 2.683343 2.114604
v 0.000000 2.683343 2.114604
v 0.000000 1.606085 2.114604
v 0.000000 1.177797 -0.168607
v 0.000000 3.230511 -0.168607
v 0.621455 -6.926289 -0.704601
v 0.409780 -6.546074 0.082300
v 0.000000 -2.019973 0.786000
v 0.000000 -6.546074 0.082300
v 1.124866 -2.089898 -0.267181
v 0.644133 -2.019973 0.786000
v 1.812174 3.408208 0.578705
v 1.812174 1.475603 0.578705
v 1.502017 -0.701058 -0.212097
v 1.228278 5.070227 0.441023
vn -0.0000 -0.1632 0.9866
vn 0.0000 -0.7438 0.6684
vn -0.9548 -0.1656 0.2469
vn -0.6729 0.1373 0.7268
vn -0.8989 -0.1327 0.4177
vn 0.0000 0.2068 0.9784
vn -0.9002 -0.1253 0.4170
vn -0.0000 -0.1536 0.9881
vn -0.9195 -0.1182 0.3749
vn 0.0000 0.2340 0.9722
vn 0.0000 0.0000 1.0000
vn -0.5298 -0.3553 0.7701
vn -0.0000 -0.2053 0.9787
vn -0.4605 0.0000 0.8877
vn 0.9548 -0.1656 0.2469
vn 0.6729 0.1373 0.7268
vn 0.8989 -0.1327 0.4177
vn 0.9002 -0.1253 0.4170
vn 0.9195 -0.1182 0.3749
vn 0.5298 -0.3553 0.7701
vn 0.4605 0.0000 0.8877
vn -0.8806 0.3867 -0.2740
vn -0.8857 0.0383 0.4627
vn -0.9199 0.0000 0.3922
vn -0.8729 0.3884 0.2954
vn -0.8851 0.4653 0.0000
vn 0.8806 0.3867 -0.2740
vn 0.8857 0.0383 0.4627
vn 0.9199 0.0000 0.3922
vn 0.8729 0.3884 0.2954
vn 0.8851 0.4653 0.0000
vn -0.4114 0.2179 0.8850
vn 0.4114 0.2179 0.8850
vn 0.0000 0.0000 -1.0000
vn 0.0147 0.0824 -0.9965
vn 0.0106 0.0893 -0.9959
vn 0.1451 -0.0159 -0.9893
vn 0.0000 0.2068 -0.9784
vn 0.1509 0.0000 -0.9886
vn 0.0012 0.0888 -0.9960
vn -0.0147 0.0824 -0.9965
vn -0.0106 0.0893 -0.9959
vn -0.1451 -0.0159 -0.9893
vn -0.1509 0.0000 -0.9886
vn -0.0012 0.0888 -0.9960
vn -0.0000 -0.2084 0.9781
vn -0.9082 -0.1124 0.4032
vn 0.0000 0.5116 0.8592
vn -0.0000 -0.5116 0.8592
vn 0.0000 1.0000 0.0000
vn -0.3594 0.9332 0.0000
vn 0.9082 -0.1124 0.4032
vn 0.3594 0.9332 0.0000
g Car1_Cube_Material.001
s off
f 64//1 20//1 6//1 40//1
f 39//2 40//2 6//2 5//2
f 20//3 19//3 5//3 6//3
f 16//4 4//4 26//4 23//4
f 3//5 1//5 21//5 22//5
f 4//6 37//6 50//6 12//6
f 3//7 15//7 1//7
f 63//8 22//8 20//8 64//8
f 22//9 21//9 19//9 20//9
f 41//10 7//10 18//10 57//10
f 57//11 18//11 17//11 58//11
f 15//12 24//12 25//12 1//12
f 38//13 3//13 22//13 63//13
f 15//14 16//14 23//14 24//14
f 64//1 40//1 32//1 62//1
f 39//2 31//2 32//2 40//2
f 62//15 32//15 31//15 61//15
f 54//16 67//16 70//16 30//16
f 29//17 66//17 65//17 27//17
f 30//6 49//6 50//6 37//6
f 29//18 27//18 53//18
f 63//8 64//8 62//8 66//8
f 66//19 62//19 61//19 65//19
f 41//10 57//10 56//10 33//10
f 57//11 58//11 55//11 56//11
f 53//20 27//20 69//20 68//20
f 38//13 63//13 66//13 29//13
f 53//21 68//21 67//21 54//21
g Car1_Cube_Material.002
f 2//22 26//22 11//22
f 4//23 16//23 18//23 7//23
f 16//24 15//24 17//24 18//24
f 26//25 4//25 12//25
f 11//26 26//26 12//26
f 28//27 48//27 70//27
f 30//28 33//28 56//28 54//28
f 54//29 56//29 55//29 53//29
f 70//30 49//30 30//30
f 48//31 49//31 70//31
g Car1_Cube_Material
f 24//14 23//14 10//14 9//14
f 25//12 24//12 9//12
f 23//32 26//32 10//32
f 68//21 43//21 44//21 67//21
f 69//20 43//20 68//20
f 67//33 44//33 70//33
g Car1_Cube_Material.004
f 59//34 36//34 1//34 13//34
f 19//35 46//35 39//35 5//35
f 21//36 45//36 46//36 19//36
f 13//37 1//37 25//37 9//37
f 35//38 2//38 11//38 47//38
f 2//39 14//39 10//39
f 14//39 13//39 9//39 10//39
f 35//34 60//34 14//34 2//34
f 60//34 59//34 13//34 14//34
f 1//40 36//40 45//40 21//40
f 59//34 51//34 27//34 36//34
f 61//41 31//41 39//41 46//41
f 65//42 61//42 46//42 45//42
f 51//43 43//43 69//43 27//43
f 35//38 47//38 48//38 28//38
f 28//44 44//44 52//44
f 52//44 44//44 43//44 51//44
f 35//34 28//34 52//34 60//34
f 60//34 52//34 51//34 59//34
f 27//45 65//45 45//45 36//45
g Car1_Cube_Material.003
f 58//46 17//46 8//46 42//46
f 15//47 3//47 8//47 17//47
f 37//48 4//48 7//48 41//48
f 3//49 38//49 42//49 8//49
f 50//50 47//50 11//50 12//50
f 26//51 2//51 10//51
f 58//46 42//46 34//46 55//46
f 53//52 55//52 34//52 29//52
f 37//48 41//48 33//48 30//48
f 29//49 34//49 42//49 38//49
f 50//50 49//50 48//50 47//50
f 70//53 44//53 28//53
